<svg height="512" viewBox="0 0 512 512" width="512" xmlns="http://www.w3.org/2000/svg"><g id="flat"><path d="m479.568 408a146.029 146.029 0 0 1 -31.568 80h-384a146.029 146.029 0 0 1 -31.568-80z" fill="#e6af89"/><path d="m35.561 208c18.86-104.626 110.38-184 220.439-184 110.059 0 201.579 79.374 220.439 184z" fill="#e6af89"/><rect fill="#915628" height="80" rx="40" width="464" x="24" y="240"/><path d="m240 280a8 8 0 0 1 -5.657-13.657l32-32a8 8 0 0 1 11.314 11.314l-32 32a7.976 7.976 0 0 1 -5.657 2.343z" fill="#7a4922"/><path d="m288 280a8 8 0 0 1 -5.657-13.657l32-32a8 8 0 0 1 11.314 11.314l-32 32a7.976 7.976 0 0 1 -5.657 2.343z" fill="#7a4922"/><path d="m192 280a8 8 0 0 1 -5.657-13.657l32-32a8 8 0 0 1 11.314 11.314l-32 32a7.976 7.976 0 0 1 -5.657 2.343z" fill="#7a4922"/><path d="m144 280a8 8 0 0 1 -5.657-13.657l32-32a8 8 0 0 1 11.314 11.314l-32 32a7.976 7.976 0 0 1 -5.657 2.343z" fill="#7a4922"/><path d="m96 280a8 8 0 0 1 -5.657-13.657l32-32a8 8 0 0 1 11.314 11.314l-32 32a7.976 7.976 0 0 1 -5.657 2.343z" fill="#7a4922"/><path d="m40 320h248v32h-248z" fill="#cb2527"/><path d="m288 320h184v32h-184z" fill="#b22122"/><rect fill="#7fa038" height="40" rx="20" width="208" x="280" y="352"/><rect fill="#8eb23e" height="40" rx="20" width="208" x="160" y="352"/><rect fill="#7fa038" height="40" rx="20" width="208" x="24" y="352"/><path d="m304 184h-16a8 8 0 0 1 0-16h16a8 8 0 0 1 0 16z" fill="#f6bb92"/><path d="m400 184h-64a8 8 0 0 1 0-16h64a8 8 0 0 1 0 16z" fill="#f6bb92"/><g fill="#c79777"><circle cx="256" cy="128" r="8"/><circle cx="256" cy="456" r="8"/><circle cx="152" cy="456" r="8"/><circle cx="352" cy="464" r="8"/><circle cx="392" cy="456" r="8"/><circle cx="104" cy="464" r="8"/><circle cx="208" cy="112" r="8"/><circle cx="390.331" cy="142.331" r="8"/><circle cx="256.492" cy="76.197" r="8"/><circle cx="208" cy="168" r="8"/><circle cx="152" cy="96" r="8"/><circle cx="148.114" cy="148.111" r="8"/><circle cx="99.161" cy="167.602" r="8"/><circle cx="360" cy="104" r="8"/><circle cx="312" cy="112" r="8"/></g><path d="m24 422c29 0 29 20 58 20s29-20 58-20 29 20 58 20 29-20 58-20 29 20 58 20 29-20 58-20 29 20 58 20 29-20 58-20" fill="#fff"/><path d="m488 422c-29 0-29 20-58 20s-29-20-58-20-29 20-58 20-29-20-58-20-29 20-58 20-29-20-58-20-29 20-58 20-29-20-58-20a41.129 41.129 0 0 1 39.594-30h384.812a41.129 41.129 0 0 1 39.594 30z" fill="#027e2a"/><path d="m472 208h-432a16 16 0 0 0 -16 16 16 16 0 0 0 16 16h256a24 24 0 0 1 24 24v39.46c0 13.455 11.011 24.791 24.464 24.536a24 24 0 0 0 23.536-23.996v-23.548c0-8.615 6.621-16.029 15.227-16.434a16 16 0 0 1 16.773 15.982 24 24 0 0 0 23.536 24c13.453.251 24.464-11.085 24.464-24.54v-15.46a24 24 0 0 1 24-24 16 16 0 0 0 16-16 16 16 0 0 0 -16-16z" fill="#f7a014"/></g></svg>